<?xml version="1.0" encoding="utf-8"?>
<!-- Generator: Adobe Illustrator 19.0.1, SVG Export Plug-In . SVG Version: 6.00 Build 0)  -->
<!DOCTYPE svg PUBLIC "-//W3C//DTD SVG 1.1//EN" "http://www.w3.org/Graphics/SVG/1.1/DTD/svg11.dtd">
<svg version="1.1" id="Layer_1" xmlns="http://www.w3.org/2000/svg" xmlns:xlink="http://www.w3.org/1999/xlink" x="0px" y="0px"
	 viewBox="0 0 75 75" style="enable-background:new 0 0 75 75;" xml:space="preserve">
<style type="text/css">
	.st0{fill:#5E5E5E;}
</style>
<path class="st0" d="M44.9,28.4c0,0-0.4,2,6.7,1.7s16.8-0.4,19.6,0.2c2.8,0.6,3.9,3,3.3,4.8c-0.6,1.8-8,3.5-11.7,4.6
	c-3.7,1.1-15.5,4.6-15.7,5.4c-0.2,0.7,2,6.5,2,10.2s2.8,11.3,3.1,13.5c0.4,2.2,0.6,5.4-2.4,5.4s-10.2-9.6-11.5-12.6
	c-1.3-3-4.8-10-5.7-10.2c-0.9-0.2-4.8,3.1-7.8,6.3s-11.1,9.8-14.6,9.8S6,64.9,7.5,61.9c1.5-3,5.9-6.8,8.5-12.2s6.1-10,6.1-10
	s-5.9-3.7-11.5-7.2s-10-8.3-10.2-11.3s3.1-4.1,4.4-3.3s10.7,5,15.5,6.1c4.8,1.1,9.4,2.2,9.4,2.2s3.3-4.8,5.2-9.8
	c1.8-5,4.3-12.4,5.5-14.4s4.8-1.5,5.4,0.4c0.6,1.8,1.7,11.7,0.7,16.3C45.8,23.3,45.1,27.3,44.9,28.4z"/>
</svg>
