<?xml version="1.0" encoding="utf-8"?>
<!-- Generator: Adobe Illustrator 19.0.1, SVG Export Plug-In . SVG Version: 6.00 Build 0)  -->
<!DOCTYPE svg PUBLIC "-//W3C//DTD SVG 1.1//EN" "http://www.w3.org/Graphics/SVG/1.1/DTD/svg11.dtd">
<svg version="1.1" id="Layer_1" xmlns="http://www.w3.org/2000/svg" xmlns:xlink="http://www.w3.org/1999/xlink" x="0px" y="0px"
	 viewBox="0 0 75 75" style="enable-background:new 0 0 75 75;" xml:space="preserve">
<style type="text/css">
	.st0{fill:#BCBCBC;}
</style>
<g>
	<path class="st0" d="M37.3,71C18.8,71,3.8,56,3.8,37.5C3.8,19,18.8,4,37.3,4s33.5,15,33.5,33.5C70.8,56,55.8,71,37.3,71z M37.3,5
		C19.4,5,4.8,19.6,4.8,37.5C4.8,55.4,19.4,70,37.3,70s32.5-14.6,32.5-32.5C69.8,19.6,55.2,5,37.3,5z"/>
	<g>
		<path class="st0" d="M53.2,53.7c-0.1,0-0.2,0-0.3-0.1L21.3,22.1c-0.2-0.2-0.2-0.5,0-0.7c0.2-0.2,0.5-0.2,0.7,0l31.5,31.5
			c0.2,0.2,0.2,0.5,0,0.7C53.4,53.7,53.3,53.7,53.2,53.7z"/>
		<path class="st0" d="M21.7,53.7c-0.1,0-0.2,0-0.3-0.1c-0.2-0.2-0.2-0.5,0-0.7l31.5-31.5c0.2-0.2,0.5-0.2,0.7,0
			c0.2,0.2,0.2,0.5,0,0.7L22,53.6C21.9,53.7,21.8,53.7,21.7,53.7z"/>
	</g>
</g>
</svg>
