<?xml version="1.0" encoding="utf-8"?>
<!-- Generator: Adobe Illustrator 19.0.1, SVG Export Plug-In . SVG Version: 6.00 Build 0)  -->
<!DOCTYPE svg PUBLIC "-//W3C//DTD SVG 1.1//EN" "http://www.w3.org/Graphics/SVG/1.1/DTD/svg11.dtd">
<svg version="1.1" id="Layer_1" xmlns="http://www.w3.org/2000/svg" xmlns:xlink="http://www.w3.org/1999/xlink" x="0px" y="0px"
	 viewBox="0 0 120 60" style="enable-background:new 0 0 120 60;" xml:space="preserve">
<style type="text/css">
	.st0{fill:#339FA6;}
</style>
<path class="st0" d="M104.1,26.8H22.5l18-20.6c1.1-1.2,1-3.1-0.3-4.2C39,0.9,37.1,1,36,2.3L13.7,27.9c-0.5,0.5-0.7,1.2-0.7,1.9
	c0,0.1,0,0.1,0,0.2c0,0.1,0,0.1,0,0.2c0,0.7,0.3,1.3,0.7,1.9L36,57.6c0.6,0.7,1.4,1,2.3,1c0.7,0,1.4-0.2,2-0.7
	c1.2-1.1,1.4-3,0.3-4.2L22.4,32.8h81.7c1.7,0,3-1.3,3-3C107.1,28.2,105.7,26.8,104.1,26.8z"/>
</svg>
